<svg width="180" height="100" viewBox="0 0 180 100" fill="none" xmlns="http://www.w3.org/2000/svg">
  <style>
    @keyframes pulse {
      0%, 100% { opacity: 0.3; }
      50% { opacity: 0.8; }
    }
    @keyframes smoke {
      0% { transform: translateY(0); opacity: 0; }
      50% { opacity: 0.6; }
      100% { transform: translateY(-12px); opacity: 0; }
    }
    @keyframes glow {
      0%, 100% { stroke-opacity: 0.3; }
      50% { stroke-opacity: 1; }
    }
    .pillar { animation: pulse 2s infinite; }
    .smoke { animation: smoke 2s infinite; }
    .window-glow { animation: glow 3s infinite; }
    .window-glow-delay { animation: glow 3s infinite 0.5s; }
  </style>
  
  <!-- Background Wall -->
  <rect x="10" y="35" width="160" height="50" fill="#334155" opacity="0.1" rx="2"/>
  
  <!-- Left Wall Pillar -->
  <rect class="pillar" x="10" y="35" width="8" height="50" fill="#c9a959" rx="1"/>
  
  <!-- Right Wall Pillar -->
  <rect class="pillar" x="162" y="35" width="8" height="50" fill="#c9a959" rx="1"/>
  
  <!-- Roof Structure -->
  <path d="M10 35 L90 12 L170 35" stroke="#c9a959" stroke-width="3" fill="none" stroke-linecap="round"/>
  
  <!-- Chimney -->
  <rect x="120" y="15" width="12" height="22" fill="#c9a959" rx="1"/>
  
  <!-- Chimney Smoke -->
  <circle class="smoke" cx="126" cy="10" r="3" fill="#c9a959"/>
  <circle class="smoke" cx="122" cy="8" r="2.5" fill="#c9a959" style="animation-delay: 0.5s"/>
  
  <!-- Left Window -->
  <rect x="25" y="50" width="18" height="18" stroke="#c9a959" stroke-width="1.5" fill="none" rx="2" class="window-glow"/>
  <line x1="34" y1="50" x2="34" y2="68" stroke="#c9a959" stroke-width="1"/>
  <line x1="25" y1="59" x2="43" y2="59" stroke="#c9a959" stroke-width="1"/>
  
  <!-- Right Window -->
  <rect x="137" y="50" width="18" height="18" stroke="#c9a959" stroke-width="1.5" fill="none" rx="2" class="window-glow-delay"/>
  <line x1="146" y1="50" x2="146" y2="68" stroke="#c9a959" stroke-width="1"/>
  <line x1="137" y1="59" x2="155" y2="59" stroke="#c9a959" stroke-width="1"/>
  
  <!-- Main Door -->
  <rect x="75" y="55" width="30" height="30" fill="#c9a959" rx="2"/>
  <rect x="79" y="59" width="22" height="22" stroke="white" stroke-width="1" fill="none" rx="1"/>
  <circle cx="99" cy="70" r="2" fill="white"/>
  <circle cx="77" cy="70" r="1.5" fill="white"/>
  
  <!-- Floor Line -->
  <line x1="10" y1="85" x2="170" y2="85" stroke="#c9a959" stroke-width="3" stroke-linecap="round"/>
  
  <!-- Text -->
  <text x="90" y="32" text-anchor="middle" font-family="Playfair Display, Georgia, serif" font-size="22" font-weight="900" fill="#ffffff" letter-spacing="-0.5">MARTIN</text>
  <text x="90" y="98" text-anchor="middle" font-family="Montserrat, Arial, sans-serif" font-size="8" font-weight="bold" fill="#94a3b8" letter-spacing="3">CONSTRUCTION</text>
</svg>